<svg width="26" height="21" viewBox="0 0 26 21" fill="none" xmlns="http://www.w3.org/2000/svg">
<path d="M2.39271 1.72676C2.51458 1.47657 2.78271 1.33301 3.05489 1.36993L12.9999 2.625L22.9449 1.36993C23.2171 1.33711 23.4852 1.48067 23.6071 1.72676L25.3011 5.14747C25.6668 5.88164 25.2768 6.77168 24.4968 6.99727L17.8586 8.9127C17.294 9.07676 16.6886 8.83477 16.388 8.32618L12.9999 2.625L9.61177 8.32618C9.31114 8.83477 8.70583 9.07676 8.14114 8.9127L1.50708 6.99727C0.723018 6.77168 0.33708 5.88164 0.702705 5.14747L2.39271 1.72676ZM13.0446 5.25L15.2749 8.99883C15.8802 10.016 17.0868 10.5 18.2202 10.1719L23.3999 8.67891V15.5285C23.3999 16.4309 22.7905 17.2184 21.9211 17.4398L13.6296 19.5316C13.2152 19.6383 12.7805 19.6383 12.3702 19.5316L4.07864 17.4398C3.20927 17.2143 2.59989 16.4268 2.59989 15.5244V8.67481L7.78364 10.1719C8.91302 10.5 10.1236 10.016 10.729 8.99883L12.9552 5.25H13.0446Z" fill="black"/>
</svg>
