<svg width="22" height="22" viewBox="0 0 22 22" fill="none" xmlns="http://www.w3.org/2000/svg">
<path d="M7.90625 2.0625H14.0938C14.2828 2.0625 14.4375 2.21719 14.4375 2.40625V4.125H7.5625V2.40625C7.5625 2.21719 7.71719 2.0625 7.90625 2.0625ZM5.5 2.40625V4.125H2.75C1.2332 4.125 0 5.3582 0 6.875V11H8.25H13.75H22V6.875C22 5.3582 20.7668 4.125 19.25 4.125H16.5V2.40625C16.5 1.07852 15.4215 0 14.0938 0H7.90625C6.57852 0 5.5 1.07852 5.5 2.40625ZM22 12.375H13.75V13.75C13.75 14.5105 13.1355 15.125 12.375 15.125H9.625C8.86445 15.125 8.25 14.5105 8.25 13.75V12.375H0V17.875C0 19.3918 1.2332 20.625 2.75 20.625H19.25C20.7668 20.625 22 19.3918 22 17.875V12.375Z" fill="black"/>
</svg>
