<svg width="42" height="35" viewBox="0 0 42 35" fill="none" xmlns="http://www.w3.org/2000/svg">
<g clip-path="url(#clip0_10_26)">
<path d="M0 1.64062C0 0.731445 0.780208 0 1.75 0H5.06771C6.67188 0 8.09375 0.875 8.75729 2.1875H38.726C40.6437 2.1875 42.0438 3.89648 41.5406 5.63281L38.551 16.0439C37.9312 18.1904 35.8531 19.6875 33.4833 19.6875H12.4469L12.8406 21.6357C13.001 22.4082 13.7229 22.9688 14.5615 22.9688H35.5833C36.5531 22.9688 37.3333 23.7002 37.3333 24.6094C37.3333 25.5186 36.5531 26.25 35.5833 26.25H14.5615C12.0385 26.25 9.87292 24.5684 9.40625 22.251L5.64375 3.72559C5.59271 3.46582 5.35208 3.28125 5.06771 3.28125H1.75C0.780208 3.28125 0 2.5498 0 1.64062ZM9.33333 31.7188C9.33333 31.2878 9.42386 30.8612 9.59975 30.4631C9.77565 30.065 10.0335 29.7032 10.3585 29.3986C10.6835 29.0939 11.0693 28.8522 11.4939 28.6873C11.9186 28.5224 12.3737 28.4375 12.8333 28.4375C13.293 28.4375 13.7481 28.5224 14.1727 28.6873C14.5974 28.8522 14.9832 29.0939 15.3082 29.3986C15.6332 29.7032 15.891 30.065 16.0669 30.4631C16.2428 30.8612 16.3333 31.2878 16.3333 31.7188C16.3333 32.1497 16.2428 32.5763 16.0669 32.9744C15.891 33.3725 15.6332 33.7343 15.3082 34.0389C14.9832 34.3436 14.5974 34.5853 14.1727 34.7502C13.7481 34.9151 13.293 35 12.8333 35C12.3737 35 11.9186 34.9151 11.4939 34.7502C11.0693 34.5853 10.6835 34.3436 10.3585 34.0389C10.0335 33.7343 9.77565 33.3725 9.59975 32.9744C9.42386 32.5763 9.33333 32.1497 9.33333 31.7188ZM33.8333 28.4375C34.7616 28.4375 35.6518 28.7832 36.3082 29.3986C36.9646 30.0139 37.3333 30.8485 37.3333 31.7188C37.3333 32.589 36.9646 33.4236 36.3082 34.0389C35.6518 34.6543 34.7616 35 33.8333 35C32.9051 35 32.0148 34.6543 31.3585 34.0389C30.7021 33.4236 30.3333 32.589 30.3333 31.7188C30.3333 30.8485 30.7021 30.0139 31.3585 29.3986C32.0148 28.7832 32.9051 28.4375 33.8333 28.4375Z" fill="black"/>
</g>
<defs>
<clipPath id="clip0_10_26">
<rect width="42" height="35" fill="white"/>
</clipPath>
</defs>
</svg>
