<svg width="20" height="19" viewBox="0 0 20 19" fill="none" xmlns="http://www.w3.org/2000/svg">
<path d="M18.6281 3.53008C19.3442 2.82208 19.3442 1.67227 18.6281 0.964264C17.9119 0.256256 16.7489 0.256256 16.0328 0.964264L9.99994 6.93419L3.9614 0.969928C3.24526 0.26192 2.08223 0.26192 1.36609 0.969928C0.649943 1.67794 0.649943 2.82774 1.36609 3.53575L7.40463 9.50001L1.37182 15.4699C0.655672 16.1779 0.655672 17.3277 1.37182 18.0357C2.08796 18.7438 3.25098 18.7438 3.96713 18.0357L9.99994 12.0658L16.0385 18.0301C16.7546 18.7381 17.9177 18.7381 18.6338 18.0301C19.3499 17.3221 19.3499 16.1723 18.6338 15.4643L12.5953 9.50001L18.6281 3.53008Z" fill="black"/>
</svg>
