<svg width="35" height="35" viewBox="0 0 35 35" fill="none" xmlns="http://www.w3.org/2000/svg">
<path d="M15.4355 34.0786L15.2646 33.9214L3.28809 22.7993C1.18945 20.8511 0 18.1167 0 15.2524V15.0268C0 10.2143 3.41797 6.08543 8.14844 5.18309C10.8418 4.66356 13.5967 5.28563 15.791 6.83055C16.4062 7.26805 16.9805 7.77391 17.5 8.35496C17.7871 8.02684 18.0947 7.72606 18.4229 7.44578C18.6758 7.22703 18.9355 7.02196 19.209 6.83055C21.4033 5.28563 24.1582 4.66356 26.8516 5.17625C31.582 6.0786 35 10.2143 35 15.0268V15.2524C35 18.1167 33.8105 20.8511 31.7119 22.7993L19.7354 33.9214L19.5645 34.0786C19.0039 34.5981 18.2656 34.8921 17.5 34.8921C16.7344 34.8921 15.9961 34.605 15.4355 34.0786ZM16.3447 11.9848C16.3174 11.9643 16.2969 11.937 16.2764 11.9097L15.0596 10.5425L15.0527 10.5356C13.4736 8.76512 11.0879 7.95848 8.76367 8.40282C5.57812 9.01121 3.28125 11.7866 3.28125 15.0268V15.2524C3.28125 17.2007 4.09473 19.0669 5.52344 20.393L17.5 31.5151L29.4766 20.393C30.9053 19.0669 31.7188 17.2007 31.7188 15.2524V15.0268C31.7188 11.7934 29.4219 9.01121 26.2432 8.40282C23.9189 7.95848 21.5264 8.77196 19.9541 10.5356C19.9541 10.5356 19.9541 10.5356 19.9473 10.5425C19.9404 10.5493 19.9473 10.5425 19.9404 10.5493L18.7236 11.9165C18.7031 11.9438 18.6758 11.9643 18.6553 11.9917C18.3477 12.2993 17.9307 12.4702 17.5 12.4702C17.0693 12.4702 16.6523 12.2993 16.3447 11.9917V11.9848Z" fill="black"/>
</svg>
