<svg width="17" height="19" viewBox="0 0 17 19" fill="none" xmlns="http://www.w3.org/2000/svg">
<g clip-path="url(#clip0_9_18)">
<path d="M13.8201 7.71875C13.8201 9.42207 13.3305 10.9955 12.5057 12.2721L16.6657 16.9738C17.0765 17.4377 17.0765 18.191 16.6657 18.6549C16.255 19.1187 15.5879 19.1187 15.1772 18.6549L11.0172 13.9531C9.88684 14.8883 8.49361 15.4375 6.98537 15.4375C3.20983 15.4375 0.150635 11.9826 0.150635 7.71875C0.150635 3.45488 3.20983 0 6.98537 0C10.7609 0 13.8201 3.45488 13.8201 7.71875ZM6.98537 13.0625C7.60675 13.0625 8.22204 12.9243 8.79613 12.6557C9.37021 12.3872 9.89183 11.9936 10.3312 11.4974C10.7706 11.0011 11.1191 10.412 11.3569 9.76371C11.5947 9.11538 11.7171 8.4205 11.7171 7.71875C11.7171 7.017 11.5947 6.32212 11.3569 5.67378C11.1191 5.02545 10.7706 4.43636 10.3312 3.94015C9.89183 3.44393 9.37021 3.05032 8.79613 2.78177C8.22204 2.51322 7.60675 2.375 6.98537 2.375C6.36399 2.375 5.74869 2.51322 5.17461 2.78177C4.60053 3.05032 4.07891 3.44393 3.63952 3.94015C3.20014 4.43636 2.8516 5.02545 2.61381 5.67378C2.37602 6.32212 2.25363 7.017 2.25363 7.71875C2.25363 8.4205 2.37602 9.11538 2.61381 9.76371C2.8516 10.412 3.20014 11.0011 3.63952 11.4974C4.07891 11.9936 4.60053 12.3872 5.17461 12.6557C5.74869 12.9243 6.36399 13.0625 6.98537 13.0625Z" fill="#999999"/>
</g>
<defs>
<clipPath id="clip0_9_18">
<rect width="16.824" height="19" fill="white" transform="translate(0.150635)"/>
</clipPath>
</defs>
</svg>
