<svg width="44" height="35" viewBox="0 0 44 35" fill="none" xmlns="http://www.w3.org/2000/svg">
<g clip-path="url(#clip0_13_3)">
<path d="M26.3999 2.1875H35.1999C36.4168 2.1875 37.3999 3.16504 37.3999 4.375C37.3999 5.58496 36.4168 6.5625 35.1999 6.5625H27.3899C27.0324 8.32617 25.8155 9.78223 24.1999 10.4795V30.625H35.1999C36.4168 30.625 37.3999 31.6025 37.3999 32.8125C37.3999 34.0225 36.4168 35 35.1999 35H21.9999H8.79988C7.58301 35 6.59988 34.0225 6.59988 32.8125C6.59988 31.6025 7.58301 30.625 8.79988 30.625H19.7999V10.4795C18.1843 9.77539 16.9674 8.31934 16.6099 6.5625H8.79988C7.58301 6.5625 6.59988 5.58496 6.59988 4.375C6.59988 3.16504 7.58301 2.1875 8.79988 2.1875H17.5999C18.6036 0.861328 20.1986 0 21.9999 0C23.8011 0 25.3961 0.861328 26.3999 2.1875ZM30.2224 21.875H40.1774L35.1999 13.3848L30.2224 21.875ZM35.1999 28.4375C30.8755 28.4375 27.2799 26.1133 26.5374 23.0439C26.3586 22.292 26.6061 21.5195 26.998 20.8496L33.543 9.69336C33.8868 9.10547 34.5193 8.75 35.1999 8.75C35.8805 8.75 36.513 9.1123 36.8568 9.69336L43.4018 20.8496C43.7936 21.5195 44.0411 22.292 43.8624 23.0439C43.1199 26.1133 39.5243 28.4375 35.1999 28.4375ZM8.71738 13.3848L3.73988 21.875H13.7018L8.71738 13.3848ZM0.0617578 23.0439C-0.116992 22.292 0.130508 21.5195 0.522383 20.8496L7.06738 9.69336C7.41113 9.10547 8.04363 8.75 8.72426 8.75C9.40488 8.75 10.0374 9.1123 10.3811 9.69336L16.9261 20.8496C17.318 21.5195 17.5655 22.292 17.3868 23.0439C16.6374 26.1133 13.0418 28.4375 8.71738 28.4375C4.39301 28.4375 0.804258 26.1133 0.0617578 23.0439Z" fill="black"/>
</g>
<defs>
<clipPath id="clip0_13_3">
<rect width="44" height="35" fill="white"/>
</clipPath>
</defs>
</svg>
