<svg width="20" height="23" viewBox="0 0 20 23" fill="none" xmlns="http://www.w3.org/2000/svg">
<path d="M2.85714 1.4375C1.28125 1.4375 0 2.72676 0 4.3125V18.6875C0 20.2732 1.28125 21.5625 2.85714 21.5625H17.1429C18.7188 21.5625 20 20.2732 20 18.6875V4.3125C20 2.72676 18.7188 1.4375 17.1429 1.4375H2.85714ZM15.0446 9.38867L9.33036 15.1387C8.91071 15.5609 8.23214 15.5609 7.81696 15.1387L4.95982 12.2637C4.54018 11.8414 4.54018 11.1586 4.95982 10.7408C5.37946 10.323 6.05804 10.3186 6.47321 10.7408L8.57143 12.8521L13.5268 7.86133C13.9464 7.43906 14.625 7.43906 15.0402 7.86133C15.4554 8.28359 15.4598 8.96641 15.0402 9.38418L15.0446 9.38867Z" fill="black"/>
</svg>
