<svg width="26" height="21" viewBox="0 0 26 21" fill="none" xmlns="http://www.w3.org/2000/svg">
<path d="M4.55 0C3.47344 0 2.6 0.881836 2.6 1.96875V3.9375H0.65C0.2925 3.9375 0 4.23281 0 4.59375C0 4.95469 0.2925 5.25 0.65 5.25H2.6H11.05C11.4075 5.25 11.7 5.54531 11.7 5.90625C11.7 6.26719 11.4075 6.5625 11.05 6.5625H2.6H1.95C1.5925 6.5625 1.3 6.85781 1.3 7.21875C1.3 7.57969 1.5925 7.875 1.95 7.875H2.6H9.75C10.1075 7.875 10.4 8.17031 10.4 8.53125C10.4 8.89219 10.1075 9.1875 9.75 9.1875H2.6H0.65C0.2925 9.1875 0 9.48281 0 9.84375C0 10.2047 0.2925 10.5 0.65 10.5H2.6H8.45C8.8075 10.5 9.1 10.7953 9.1 11.1562C9.1 11.5172 8.8075 11.8125 8.45 11.8125H2.6V17.0625C2.6 19.2363 4.34687 21 6.5 21C8.65312 21 10.4 19.2363 10.4 17.0625H15.6C15.6 19.2363 17.3469 21 19.5 21C21.6531 21 23.4 19.2363 23.4 17.0625H24.7C25.4191 17.0625 26 16.476 26 15.75C26 15.024 25.4191 14.4375 24.7 14.4375V11.8125V10.5V9.73301C24.7 9.03574 24.4278 8.36719 23.9403 7.875L20.8 4.70449C20.3125 4.2123 19.6503 3.9375 18.9597 3.9375H16.9V1.96875C16.9 0.881836 16.0266 0 14.95 0H4.55ZM22.1 9.73301V10.5H16.9V6.5625H18.9597L22.1 9.73301ZM6.5 15.0938C7.01717 15.0938 7.51316 15.3012 7.87886 15.6704C8.24455 16.0396 8.45 16.5404 8.45 17.0625C8.45 17.5846 8.24455 18.0854 7.87886 18.4546C7.51316 18.8238 7.01717 19.0312 6.5 19.0312C5.98283 19.0312 5.48684 18.8238 5.12114 18.4546C4.75545 18.0854 4.55 17.5846 4.55 17.0625C4.55 16.5404 4.75545 16.0396 5.12114 15.6704C5.48684 15.3012 5.98283 15.0938 6.5 15.0938ZM17.55 17.0625C17.55 16.5404 17.7554 16.0396 18.1211 15.6704C18.4868 15.3012 18.9828 15.0938 19.5 15.0938C20.0172 15.0938 20.5132 15.3012 20.8789 15.6704C21.2446 16.0396 21.45 16.5404 21.45 17.0625C21.45 17.5846 21.2446 18.0854 20.8789 18.4546C20.5132 18.8238 20.0172 19.0312 19.5 19.0312C18.9828 19.0312 18.4868 18.8238 18.1211 18.4546C17.7554 18.0854 17.55 17.5846 17.55 17.0625Z" fill="black"/>
</svg>
